REM DIRINDEX 1\2,1\3,1\4,1\5
REM DIRNAME "folder01","folder02","folder03","folder04","folder05"
TITLE ""
FILE "1Q_t_1768-1777.mp3" MP3
  TRACK 01 AUDIO
    TITLE "2:cjc172_6299"
    INDEX 01 00:00:00
  TRACK 02 AUDIO
    TITLE "0:"
    INDEX 01 00:01:27
  TRACK 03 AUDIO
    TITLE "3:cjc172_6300"
    INDEX 01 00:01:72
  TRACK 04 AUDIO
    TITLE "0:"
    INDEX 01 00:03:09
  TRACK 05 AUDIO
    TITLE "4:cjc172_6301"
    INDEX 01 00:03:18
  TRACK 06 AUDIO
    TITLE "0:"
    INDEX 01 00:05:45
  TRACK 07 AUDIO
    TITLE "5:cjc172_6302"
    INDEX 01 00:05:55
  TRACK 08 AUDIO
    TITLE "0:"
    INDEX 01 00:09:52
  TRACK 09 AUDIO
    TITLE "3:cjc172_6303"
    INDEX 01 00:10:26
  TRACK 10 AUDIO
    TITLE "0:"
    INDEX 01 00:11:24
  TRACK 11 AUDIO
    TITLE "4:cjc172_6304"
    INDEX 01 00:11:34
  TRACK 12 AUDIO
    TITLE "0:"
    INDEX 01 00:15:47
  TRACK 13 AUDIO
    TITLE "5:cjc172_6305"
    INDEX 01 00:15:57
  TRACK 14 AUDIO
    TITLE "0:"
    INDEX 01 00:20:37
  TRACK 15 AUDIO
    TITLE "3:cjc172_6306"
    INDEX 01 00:21:10
  TRACK 16 AUDIO
    TITLE "0:"
    INDEX 01 00:22:26
  TRACK 17 AUDIO
    TITLE "4:cjc172_6307"
    INDEX 01 00:22:33
  TRACK 18 AUDIO
    TITLE "0:"
    INDEX 01 00:23:45
  TRACK 19 AUDIO
    TITLE "5:cjc172_6308"
    INDEX 01 00:23:54
  TRACK 20 AUDIO
    TITLE "0:"
    INDEX 01 00:28:54
  TRACK 21 AUDIO
    TITLE "3:cjc172_6309"
    INDEX 01 00:29:26
  TRACK 22 AUDIO
    TITLE "0:"
    INDEX 01 00:30:35
  TRACK 23 AUDIO
    TITLE "4:cjc172_6310"
    INDEX 01 00:30:47
  TRACK 24 AUDIO
    TITLE "0:"
    INDEX 01 00:33:06
  TRACK 25 AUDIO
    TITLE "5:cjc172_6311"
    INDEX 01 00:33:16
  TRACK 26 AUDIO
    TITLE "0:"
    INDEX 01 00:38:13
  TRACK 27 AUDIO
    TITLE "3:cjc172_6312"
    INDEX 01 00:38:66
  TRACK 28 AUDIO
    TITLE "0:"
    INDEX 01 00:40:22
  TRACK 29 AUDIO
    TITLE "4:cjc172_6313"
    INDEX 01 00:40:33
  TRACK 30 AUDIO
    TITLE "0:"
    INDEX 01 00:41:72
  TRACK 31 AUDIO
    TITLE "5:cjc172_6314"
    INDEX 01 00:42:05
  TRACK 32 AUDIO
    TITLE "0:"
    INDEX 01 00:46:40
  TRACK 33 AUDIO
    TITLE "3:cjc172_6315"
    INDEX 01 00:47:12
  TRACK 34 AUDIO
    TITLE "0:"
    INDEX 01 00:48:29
  TRACK 35 AUDIO
    TITLE "4:cjc172_6316"
    INDEX 01 00:48:41
  TRACK 36 AUDIO
    TITLE "0:"
    INDEX 01 00:49:60
  TRACK 37 AUDIO
    TITLE "5:cjc172_6317"
    INDEX 01 00:49:70
  TRACK 38 AUDIO
    TITLE "0:"
    INDEX 01 00:54:06
  TRACK 39 AUDIO
    TITLE "3:cjc172_6318"
    INDEX 01 00:54:53
  TRACK 40 AUDIO
    TITLE "0:"
    INDEX 01 00:55:72
  TRACK 41 AUDIO
    TITLE "4:cjc172_6319"
    INDEX 01 00:56:05
  TRACK 42 AUDIO
    TITLE "0:"
    INDEX 01 00:58:27
  TRACK 43 AUDIO
    TITLE "5:cjc172_6320"
    INDEX 01 00:58:37
  TRACK 44 AUDIO
    TITLE "0:"
    INDEX 01 01:03:19
  TRACK 45 AUDIO
    TITLE "3:cjc172_6321"
    INDEX 01 01:03:68
  TRACK 46 AUDIO
    TITLE "0:"
    INDEX 01 01:05:10
  TRACK 47 AUDIO
    TITLE "4:cjc172_6322"
    INDEX 01 01:05:22
  TRACK 48 AUDIO
    TITLE "0:"
    INDEX 01 01:07:13
  TRACK 49 AUDIO
    TITLE "5:cjc172_6323"
    INDEX 01 01:07:20
  TRACK 50 AUDIO
    TITLE "0:"
    INDEX 01 01:11:22
  TRACK 51 AUDIO
    TITLE "3:cjc172_6324"
    INDEX 01 01:11:69
  TRACK 52 AUDIO
    TITLE "0:"
    INDEX 01 01:13:07
  TRACK 53 AUDIO
    TITLE "4:cjc172_6325"
    INDEX 01 01:13:21
  TRACK 54 AUDIO
    TITLE "0:"
    INDEX 01 01:16:27
  TRACK 55 AUDIO
    TITLE "5:cjc172_6326"
    INDEX 01 01:16:35
  TRACK 56 AUDIO
    TITLE "0:"
    INDEX 01 01:21:05
  TRACK 57 AUDIO
    TITLE "3:cjc172_6327"
    INDEX 01 01:21:52
  TRACK 58 AUDIO
    TITLE "0:"
    INDEX 01 01:23:06
  TRACK 59 AUDIO
    TITLE "4:cjc172_6328"
    INDEX 01 01:23:16
  TRACK 60 AUDIO
    TITLE "0:"
    INDEX 01 01:24:40
  TRACK 61 AUDIO
    TITLE "5:cjc172_6329"
    INDEX 01 01:24:50
  TRACK 62 AUDIO
    TITLE "0:"
    INDEX 01 01:28:73
